#!OML:ASF H:\charlestonDancing\Project 1\Capture day 1\Session 1\femaleDancer.ASF
:FULLY-SPECIFIED
:DEGREES
316
root -12.8606 18.1848 3.65071 109.887 -81.5169 -103.165
lowerback 30.6177 -4.44876 -7.52036
upperback 10.3751 -9.32649 -5.68564
thorax -4.74761 -4.96242 1.07762
lowerneck 5.91995 -2.15813 -1.03649
upperneck -13.6601 -1.86735 11.948
head -4.93303 -1.82794 4.02704
rclavicle 2.8625e-014 3.18055e-015
rhumerus -57.7624 13.6271 -92.9857
rradius 38.6087
rwrist 21.8345
rhand -33.9368 -30.2336
rfingers 7.12502
rthumb -7.11857 -60.0939
lclavicle 2.8625e-014 3.18055e-015
lhumerus 19.1625 1.75756 49.9879
lradius 90.7918
lwrist -14.0879
lhand -34.6426 7.21509
lfingers 7.12502
lthumb -7.7998 37.0512
rfemur -56.6409 8.97021 23.0217
rtibia 49.2667
rfoot -11.9643 6.53964
rtoes -16.2006
lfemur -28.4801 2.15771 -16.2166
ltibia 41.2342
lfoot -3.82833 -5.44585
ltoes -21.0646
317
root -12.8902 18.1973 3.66531 110.938 -80.6141 -103.894
lowerback 30.5442 -4.52593 -7.54443
upperback 10.3699 -9.44672 -5.91333
thorax -4.75199 -5.01765 0.874699
lowerneck 6.09164 -1.70825 -0.449553
upperneck -13.807 -1.19902 11.7664
head -5.06468 -1.53504 3.84289
rclavicle -1.30403e-013 -5.40694e-014
rhumerus -58.246 13.5565 -92.8103
rradius 40.3112
rwrist 20.2012
rhand -34.2945 -30.9582
rfingers 7.12502
rthumb -7.4638 -60.8065
lclavicle -1.30403e-013 -5.40694e-014
lhumerus 20.5168 1.54414 48.8091
lradius 89.9837
lwrist -15.0374
lhand -33.9895 6.76587
lfingers 7.12502
lthumb -7.16942 36.6244
rfemur -55.9585 9.22547 23.8035
rtibia 42.7057
rfoot -12.2183 7.93191
rtoes -16.674
lfemur -28.5218 2.4385 -15.2621
ltibia 41.0127
lfoot -4.01819 -5.84224
ltoes -20.2109
318
root -12.9194 18.1891 3.68157 111.743 -79.8186 -104.439
lowerback 30.4009 -4.57283 -7.51779
upperback 10.3537 -9.50418 -6.11694
thorax -4.74444 -5.0426 0.645117
lowerneck 6.11862 -1.26344 -0.0541907
upperneck -13.8994 -0.552942 11.6908
head -5.14533 -1.24462 3.71925
rclavicle 8.26944e-014 6.36111e-014
rhumerus -58.6678 13.3324 -92.4857
rradius 42.2504
rwrist 18.8821
rhand -33.8191 -32.8994
rfingers 7.12502
rthumb -7.00493 -62.7635
lclavicle 8.26944e-014 6.36111e-014
lhumerus 21.3511 1.16393 48.0486
lradius 89.1557
lwrist -15.7328
lhand -33.5474 6.43133
lfingers 7.12502
lthumb -6.7427 36.304
rfemur -55.285 8.54167 25.2945
rtibia 37.5056
rfoot -12.3562 9.43062
rtoes -19.0713
lfemur -28.6281 2.92405 -14.5014
ltibia 41.0277
lfoot -4.41889 -6.41479
ltoes -20.4127
319
root -12.9458 18.1529 3.69676 112.951 -79.3067 -105.473
lowerback 30.3077 -4.47626 -7.65892
upperback 10.2559 -9.43972 -6.31972
thorax -4.8305 -5.00393 0.479973
lowerneck 6.43166 -0.821189 0.321138
upperneck -14.3039 0.133595 11.6697
head -5.37206 -0.961631 3.623
rclavicle -2.54444e-014 5.725e-014
rhumerus -59.2271 12.9448 -92.0864
rradius 44.6058
rwrist 17.5948
rhand -35.4966 -31.9232
rfingers 7.12502
rthumb -8.62398 -61.7271
lclavicle -2.54444e-014 5.725e-014
lhumerus 21.6997 0.419546 47.7592
lradius 88.2728
lwrist -15.8883
lhand -33.3256 6.32891
lfingers 7.12502
lthumb -6.52855 36.2083
rfemur -54.8855 7.20974 27.0619
rtibia 34.1558
rfoot -12.0847 11.2555
rtoes -16.6129
lfemur -28.8417 3.53053 -14.1406
ltibia 41.3394
lfoot -4.94282 -7.03253
ltoes -19.2046
320
root -12.9642 18.092 3.71029 114.867 -79.0321 -107.309
lowerback 30.2568 -4.1889 -7.87381
upperback 10.0971 -9.16934 -6.51721
thorax -5.00121 -4.86308 0.304299
lowerneck 7.17708 -0.427412 0.508375
upperneck -15.2021 0.818573 11.7909
head -5.82743 -0.719517 3.6161
rclavicle 9.54166e-015 9.85972e-014
rhumerus -59.8896 12.1142 -91.4808
rradius 47.4804
rwrist 16.477
rhand -35.8415 -32.1888
rfingers 7.12502
rthumb -8.95688 -61.9787
lclavicle 9.54166e-015 9.85972e-014
lhumerus 21.5108 -0.848804 48.0478
lradius 87.4295
lwrist -15.3616
lhand -33.4814 6.64359
lfingers 7.12502
lthumb -6.67893 36.5183
rfemur -55.0191 6.17702 28.2304
rtibia 33.2929
rfoot -12.6249 12.2962
rtoes -15.8762
lfemur -29.1189 4.20073 -14.1388
ltibia 41.9084
lfoot -5.448 -7.65689
ltoes -14.4765
321
root -12.9776 18.0009 3.71913 117.463 -78.9477 -109.892
lowerback 30.2575 -3.70907 -8.14337
upperback 9.90304 -8.68123 -6.66122
thorax -5.22709 -4.61715 0.153277
lowerneck 7.72701 -0.120883 0.428979
upperneck -16.0659 1.36388 12.0398
head -6.23307 -0.535647 3.69842
rclavicle -2.54444e-014 1.90833e-014
rhumerus -60.5357 10.8356 -90.6229
rradius 50.8097
rwrist 15.6231
rhand -34.8494 -34.0193
rfingers 7.12502
rthumb -7.9994 -63.8479
lclavicle -2.54444e-014 1.90833e-014
lhumerus 20.8271 -2.47991 48.9571
lradius 86.5844
lwrist -14.719
lhand -33.9578 7.30368
lfingers 7.12502
lthumb -7.13885 37.1633
rfemur -55.5826 5.80195 28.4758
rtibia 34.8992
rfoot -13.2867 11.9603
rtoes -17.3919
lfemur -29.4751 4.81341 -14.4173
ltibia 42.7111
lfoot -6.07264 -8.3097
ltoes -9.25277
322
root -12.9886 17.9007 3.72158 120.228 -79 -112.784
lowerback 30.3806 -3.10519 -8.48811
upperback 9.755 -8.0748 -6.75326
thorax -5.44426 -4.32078 0.0659627
lowerneck 7.97898 0.158959 0.315127
upperneck -16.8929 1.84104 12.2042
head -6.57365 -0.367556 3.7592
rclavicle 6.04305e-014 9.22361e-014
rhumerus -60.9464 9.45378 -89.7115
rradius 54.2963
rwrist 15.2426
rhand -36.2366 -34.9712
rfingers 7.12502
rthumb -9.33811 -64.7444
lclavicle 6.04305e-014 9.22361e-014
lhumerus 19.7027 -3.9931 50.3125
lradius 85.6209
lwrist -14.6877
lhand -34.1162 7.76723
lfingers 7.12502
lthumb -7.29174 37.6216
rfemur -56.2864 5.74504 28.179
rtibia 38.6619
rfoot -13.9304 9.87673
rtoes -21.4805
lfemur -29.7564 5.33317 -14.8471
ltibia 43.6446
lfoot -6.67599 -9.05547
ltoes -3.90347
323
root -13.0007 17.8111 3.71964 123.199 -79.0985 -115.944
lowerback 30.5903 -2.57951 -8.97769
upperback 9.64802 -7.61684 -6.80237
thorax -5.62534 -4.09996 0.152667
lowerneck 8.16264 0.594234 0.138487
upperneck -17.8641 2.49057 12.0512
head -6.95994 -0.0886089 3.71341
rclavicle -1.59028e-014 -6.04305e-014
rhumerus -60.9198 8.70393 -89.1604
rradius 58.1865
rwrist 13.8879
rhand -36.8383 -35.8568
rfingers 7.12502
rthumb -9.91862 -65.6032
lclavicle -1.59028e-014 -6.04305e-014
lhumerus 17.7491 -4.99624 51.7843
lradius 84.5365
lwrist -14.8404
lhand -33.8376 7.99792
lfingers 7.12502
lthumb -7.02282 37.8614
rfemur -57.0419 5.80906 27.6695
rtibia 44.0855
rfoot -14.7711 6.97232
rtoes -23.2048
lfemur -29.9639 5.81633 -15.3349
ltibia 44.6109
lfoot -7.17006 -9.62671
ltoes 0.636496
324
root -13.0156 17.7421 3.71506 126.669 -79.1097 -119.487
lowerback 30.7381 -2.07962 -9.55244
upperback 9.53274 -7.20131 -6.7838
thorax -5.76931 -3.89991 0.367783
lowerneck 8.37647 1.12682 -0.0712055
upperneck -18.9435 3.23848 11.6337
head -7.39328 0.260875 3.5749
rclavicle -4.45278e-014 -4.13472e-014
rhumerus -60.3395 8.43743 -88.9935
rradius 62.0768
rwrist 13.4363
rhand -38.1371 -36.873
rfingers 7.12502
rthumb -11.1715 -66.5556
lclavicle -4.45278e-014 -4.13472e-014
lhumerus 15.0178 -5.74682 53.435
lradius 83.1704
lwrist -14.937
lhand -33.8175 8.45105
lfingers 7.12502
lthumb -7.00344 38.3152
rfemur -57.9176 6.10467 27.0711
rtibia 50.4913
rfoot -15.0751 4.00974
rtoes -24.3265
lfemur -30.3088 6.45345 -15.8217
ltibia 45.6241
lfoot -7.9234 -9.73677
ltoes 0.392603
325
root -13.0344 17.7064 3.70716 129.799 -78.8112 -122.511
lowerback 30.7073 -1.39641 -9.77923
upperback 9.40044 -6.42309 -6.70995
thorax -5.91364 -3.52514 0.322974
lowerneck 8.87536 1.48646 -0.103959
upperneck -20.2191 3.80067 11.2585
head -7.93571 0.486385 3.43701
rclavicle -6.67916e-014 -7.31528e-014
rhumerus -59.3081 7.87148 -89.1798
rradius 65.6982
rwrist 13.1478
rhand -39.2624 -38.4164
rfingers 7.12502
rthumb -12.2567 -68.0372
lclavicle -6.67916e-014 -7.31528e-014
lhumerus 12.1159 -6.84665 55.4184
lradius 81.2663
lwrist -15.3562
lhand -33.8599 9.15268
lfingers 7.12502
lthumb -7.04433 39.0155
rfemur -59.0063 6.69846 26.6769
rtibia 57.5369
rfoot -15.4735 2.22969
rtoes -24.8434
lfemur -30.7639 7.53212 -16.0409
ltibia 46.401
lfoot -8.66053 -9.6569
ltoes -4.12018
326
root -13.0674 17.6685 3.69604 131.543 -78.1585 -123.947
lowerback 30.5143 -0.699339 -9.48205
upperback 9.26 -5.42977 -6.54669
thorax -6.05238 -3.04396 0.0073814
lowerneck 9.23175 1.70616 -0.0992364
upperneck -21.3388 4.16846 10.9991
head -8.39581 0.616827 3.34233
rclavicle 3.18055e-015 6.99722e-014
rhumerus -57.7798 7.39241 -89.6264
rradius 69.1948
rwrist 13.485
rhand -40.3922 -40.057
rfingers 7.12502
rthumb -13.3458 -69.6096
lclavicle 3.18055e-015 6.99722e-014
lhumerus 8.96862 -7.8528 57.7585
lradius 78.8446
lwrist -16.6304
lhand -33.2132 9.8295
lfingers 7.12502
lthumb -6.42 39.7122
rfemur -59.9171 7.42425 26.7395
rtibia 64.5867
rfoot -15.5502 0.471024
rtoes -25.2856
lfemur -31.3122 8.71312 -15.7581
ltibia 46.8342
lfoot -8.63116 -9.72131
ltoes -6.78847
